<svg width="250" height="250" viewBox="0 0 250 250" fill="none" xmlns="http://www.w3.org/2000/svg">
<rect x="35.625" y="37.5" width="177.187" height="174.375" fill="#01FFFF"/>
<path d="M0 125V250H125H250V125V0H125H0V125ZM136.875 60.625C139 66.125 143 76.5 145.75 83.625C148.375 90.75 151.25 96.75 152 97.125C153.25 97.625 161.5 93.5 193.5 76.75C199.125 73.75 204.125 71.25 204.5 71.25C205.125 71.25 190.375 83.375 143.125 121.75C132.125 130.625 118.625 141.75 113.125 146.25C107.625 150.75 97 159.5 89.375 165.625C81.875 171.75 69.5 181.75 62 187.875C54.5 193.875 48 198.375 47.5 197.875C47 197.375 45.875 191 45.125 183.75C44.25 176.5 43.375 168.875 43 166.75C42.25 163 42.5 162.875 65.25 149.375C110.625 122.625 121.875 116 124.625 114.25L127.375 112.5L124.375 104.75C122.75 100.375 120.75 95.125 120 93.125L118.5 89.375L114.75 99.375L111.125 109.5L96.5 118C88.5 122.75 80 127.75 77.75 129L73.75 131.5L75 127.875C75.75 126 82.875 107.625 90.875 87.125L105.375 49.875L119.25 50.25L133 50.625L136.875 60.625ZM172.875 153.25C179 169 185.375 185.5 187 190L190.125 198.125L183.5 191.25C179.875 187.5 172.375 179.25 166.75 173.125C161.25 166.875 152.625 157.375 147.625 152C142.75 146.5 138.875 141.625 139 141C139.625 139.25 159.25 123.875 160.5 124.125C161.125 124.375 166.75 137.375 172.875 153.25Z" fill="#24292D"/>
</svg>
